<?xml version="1.0" standalone="no"?>
<!DOCTYPE svg PUBLIC "-//W3C//DTD SVG 20010904//EN"
 "http://www.w3.org/TR/2001/REC-SVG-20010904/DTD/svg10.dtd">
<svg version="1.0" xmlns="http://www.w3.org/2000/svg"
 width="478.000000pt" height="520.000000pt" viewBox="0 0 478.000000 520.000000"
 preserveAspectRatio="xMidYMid meet">

<g transform="translate(0.000000,520.000000) scale(0.100000,-0.100000)"
fill="#000000" stroke="none">
<path d="M1193 5193 c658 -2 1736 -2 2395 0 658 1 119 2 -1198 2 -1317 0
-1856 -1 -1197 -2z"/>
<path d="M2927 4315 c-47 -36 -150 -163 -182 -224 -21 -42 -24 -94 -4 -117 7
-10 45 -37 82 -62 38 -24 71 -50 74 -58 9 -24 -68 -137 -151 -220 -80 -80
-197 -160 -222 -150 -6 2 -32 35 -56 73 -54 83 -71 97 -112 96 -43 -1 -84 -23
-178 -95 -79 -60 -148 -138 -148 -167 0 -68 124 -210 201 -231 51 -14 164 -1
251 29 300 103 606 409 709 709 10 30 23 91 30 137 10 76 9 87 -9 128 -11 25
-39 66 -62 91 -41 44 -127 96 -161 96 -9 0 -37 -16 -62 -35z m124 -54 c51 -32
107 -94 116 -130 8 -33 -13 -166 -37 -230 -50 -130 -108 -222 -229 -360 -160
-181 -436 -331 -611 -331 -56 0 -113 36 -160 101 -39 55 -45 75 -26 104 33 51
231 192 256 183 6 -2 32 -34 58 -72 26 -38 59 -79 75 -90 24 -18 31 -19 65 -7
131 46 350 263 392 390 12 38 12 44 -7 69 -11 15 -51 48 -89 74 -38 26 -70 52
-72 58 -13 38 171 269 214 270 5 0 30 -13 55 -29z"/>
</g>
</svg>
