<?xml version="1.0" standalone="no"?>
<!DOCTYPE svg PUBLIC "-//W3C//DTD SVG 20010904//EN"
 "http://www.w3.org/TR/2001/REC-SVG-20010904/DTD/svg10.dtd">
<svg version="1.0" xmlns="http://www.w3.org/2000/svg"
 width="478.000000pt" height="516.000000pt" viewBox="0 0 478.000000 516.000000"
 preserveAspectRatio="xMidYMid meet">

<g transform="translate(0.000000,516.000000) scale(0.100000,-0.100000)"
fill="#000000" stroke="none">
<path d="M1682 4248 c-30 -30 -10 -56 248 -313 l260 -260 -260 -260 c-170
-170 -260 -267 -260 -281 0 -24 18 -44 39 -44 9 0 134 118 278 262 l263 263
263 -263 c144 -144 269 -262 278 -262 21 0 39 20 39 45 0 13 -88 109 -260 280
l-260 260 260 260 c170 170 260 267 260 281 0 24 -18 44 -39 44 -9 0 -134
-118 -278 -262 l-263 -263 -263 263 c-144 144 -269 262 -278 262 -8 0 -20 -5
-27 -12z"/>
</g>
</svg>
