<?xml version="1.0" standalone="no"?>
<!DOCTYPE svg PUBLIC "-//W3C//DTD SVG 20010904//EN"
 "http://www.w3.org/TR/2001/REC-SVG-20010904/DTD/svg10.dtd">
<svg version="1.0" xmlns="http://www.w3.org/2000/svg"
 width="479.000000pt" height="518.000000pt" viewBox="0 0 479.000000 518.000000"
 preserveAspectRatio="xMidYMid meet">

<g transform="translate(0.000000,518.000000) scale(0.100000,-0.100000)"
fill="#000000" stroke="none">
<path d="M1536 4154 c-9 -8 -16 -22 -16 -29 0 -7 7 -21 16 -29 14 -14 91 -16
704 -16 613 0 690 2 704 16 9 8 16 22 16 29 0 7 -7 21 -16 29 -14 14 -91 16
-704 16 -613 0 -690 -2 -704 -16z"/>
<path d="M1536 3704 c-9 -8 -16 -22 -16 -29 0 -7 7 -21 16 -29 14 -14 91 -16
704 -16 613 0 690 2 704 16 9 8 16 22 16 29 0 7 -7 21 -16 29 -14 14 -91 16
-704 16 -613 0 -690 -2 -704 -16z"/>
<path d="M1536 3254 c-9 -8 -16 -22 -16 -29 0 -7 7 -21 16 -29 14 -14 91 -16
704 -16 613 0 690 2 704 16 9 8 16 22 16 29 0 7 -7 21 -16 29 -14 14 -91 16
-704 16 -613 0 -690 -2 -704 -16z"/>
</g>
</svg>
